<?xml version="1.0" encoding="utf-8"?>
<!-- Generator: Adobe Illustrator 15.0.2, SVG Export Plug-In . SVG Version: 6.00 Build 0)  -->
<!DOCTYPE svg PUBLIC "-//W3C//DTD SVG 1.1//EN" "http://www.w3.org/Graphics/SVG/1.1/DTD/svg11.dtd">
<svg version="1.1" id="Layer_1" xmlns="http://www.w3.org/2000/svg" xmlns:xlink="http://www.w3.org/1999/xlink" x="0px" y="0px"
	 width="47.998px" height="40.696px" viewBox="-7.999 -4.286 47.998 40.696" enable-background="new -7.999 -4.286 47.998 40.696"
	 xml:space="preserve">
<g id="Layer_1_1_">
</g>
<g id="Layer_2">
	<g>
		<path fill="#FFFFFF" d="M34.062,20.999c-0.363-0.333-0.689-0.63-0.957-0.89c-1.074-1.041-4.01-3.371-6.742-5.49
			c0.168,0,0.84-0.008,1.17-0.063c0.381-0.062,1.465-1.21,1.654-1.655c0.191-0.445,1.021-0.637,1.273-0.827
			c0.254-0.19,0.193-0.7-0.508-0.383c-0.701,0.318-2.609,1.782-2.93,1.973c-0.23,0.14-1.213,0.062-1.771,0.095
			c-1.41-1.086-2.664-2.04-3.479-2.656c0.018-0.224,0.033-0.463,0.033-0.557c0-0.191,0.191-2.037,0.191-2.037
			s0.572-0.764,1.082-0.891c0.51-0.128,0.637-0.828,0.955-1.719c0.316-0.892,0.127-1.592,0.381-2.037c0.256-0.445,0-1.527,0-1.527
			s0.51-0.284,0.83-0.954c1.209-2.546,3.436-4.521,3.945-5.028s0.127-0.764-0.381-0.572c-0.51,0.189-4.459,4.71-4.584,5.027
			C24.1,1.125,23.59,1.633,23.461,2.334c-0.125,0.7-0.891,3.119-0.955,3.373c-0.062,0.254-1.215,0.637-1.215,0.637
			s0-0.257-0.021-0.631c0.1-0.131,0.217-0.359,0.352-0.738c0.574-1.591-1.338-2.959-1.654-3.309
			c-0.16-0.177-0.549-0.295-0.891-0.372c0.324-0.217,0.814-0.569,1.137-0.935c0.51-0.572,0.699-0.953,0.955-1.398
			S20.723-1.74,20.723-1.74s-1.211,1.209-1.211,1.845c0,0.468-0.652,0.831-0.996,0.991c-0.197-0.121-0.482-0.28-0.785-0.354
			c-0.51-0.128-1.647,0.103-1.647,0.103c-0.059,0.016-0.092,0.035-0.141,0.053c-0.048-0.017-0.083-0.037-0.141-0.053
			c0,0-1.026-0.23-1.535-0.103c-0.302,0.074-0.588,0.233-0.785,0.354c-0.343-0.16-0.995-0.523-0.995-0.991
			c0-0.636-1.211-1.845-1.211-1.845s-0.7,0.254-0.445,0.701c0.255,0.445,0.445,0.826,0.955,1.398
			c0.329,0.369,0.827,0.729,1.149,0.942c-0.335,0.076-0.699,0.193-0.852,0.362c-0.318,0.351-2.229,1.72-1.656,3.31
			c0.119,0.332,0.222,0.546,0.312,0.683c-0.018,0.367-0.016,0.623-0.016,0.623s-1.166-0.318-1.23-0.573
			C9.431,5.451,8.667,3.033,8.54,2.332c-0.127-0.7-0.637-1.209-0.765-1.526C7.648,0.486,3.703-4.032,3.193-4.223
			S2.302-4.16,2.81-3.65c0.51,0.509,2.737,2.483,3.946,5.028c0.317,0.671,0.828,0.954,0.828,0.954s-0.255,1.082,0,1.528
			s0.063,1.146,0.383,2.036C8.285,6.787,8.413,7.487,8.92,7.615c0.511,0.126,1.083,0.891,1.083,0.891s0.191,1.846,0.191,2.037
			c0,0.093,0.017,0.332,0.031,0.557c-0.814,0.618-2.068,1.57-3.477,2.656c-0.561-0.033-1.538,0.046-1.772-0.094
			c-0.319-0.191-2.228-1.655-2.927-1.973c-0.701-0.318-0.765,0.19-0.511,0.382c0.255,0.191,1.083,0.382,1.273,0.827
			c0.192,0.445,1.273,1.592,1.656,1.656c0.333,0.055,0.999,0.062,1.168,0.062c-2.731,2.119-5.667,4.448-6.742,5.491
			c-0.267,0.258-0.594,0.557-0.956,0.891c-2.702,2.473-7.227,6.615-5.59,10.675c0.621,1.541,1.564,2.545,2.807,2.984
			c0.475,0.168,0.994,0.254,1.556,0.254c1.479,0,3.261-0.589,5.396-1.773c1.867-1.037,4.343-3.098,6.349-5.225
			c-0.239,0.532-0.482,1.107-0.614,1.531c-0.317,1.02-0.956,3.12-1.21,3.437c-0.256,0.321-1.592,2.865-1.782,3.12
			c-0.192,0.255,0.157,0.618,0.381,0.255c1.21-1.974,2.165-2.481,2.355-3.182s0.827-2.673,0.827-2.673S9.177,29.574,9.433,29
			c0.213-0.475,0.381-1.998,0.687-3.014c0.444-0.566,0.833-1.117,1.136-1.631c0.205,0.732,0.687,2.33,1.168,3.054
			c0.638,0.955,1.846,2.354,2.61,2.481c0.39,0.066,1.544,0.066,1.935,0c0.766-0.127,1.973-1.527,2.611-2.481
			c0.479-0.724,0.961-2.321,1.166-3.054c0.303,0.514,0.693,1.064,1.135,1.631c0.307,1.016,0.477,2.537,0.689,3.014
			c0.254,0.574,1.018,1.402,1.018,1.402s0.635,1.973,0.828,2.673c0.191,0.7,1.146,1.208,2.354,3.182
			c0.223,0.363,0.574,0,0.383-0.255c-0.189-0.255-1.529-2.799-1.781-3.12c-0.256-0.316-0.893-2.417-1.213-3.437
			c-0.131-0.424-0.375-0.999-0.615-1.531c2.01,2.127,4.482,4.188,6.352,5.225c2.133,1.185,3.916,1.773,5.395,1.773
			c0.562,0,1.08-0.086,1.559-0.254c1.238-0.439,2.182-1.443,2.803-2.984C41.289,27.617,36.766,23.475,34.062,20.999z M31.961,20.647
			c0.271,0.267,0.605,0.571,0.977,0.911c2.1,1.922,6.35,5.071,6.555,8.039c-0.494-0.549-1.43-1.582-1.842-1.995
			c-0.574-0.573-2.801-2.291-4.328-3.374c-1.326-0.938-10.975-10.342-13.514-12.826c0.129-0.094,0.27-0.165,0.422-0.191
			C20.432,11.357,29.854,18.604,31.961,20.647z M19.812,22.033c0.102,0.359,0.209,0.695,0.316,1.01
			c-0.453,0.309-1.584,1.012-2.523,1.062c-0.262,0.015-0.492,0.015-0.703,0.009c-0.256-0.105-0.598-0.137-0.598-0.137
			S16.199,24.005,16,24.035c-0.197-0.03-0.305-0.059-0.305-0.059s-0.342,0.031-0.597,0.137c-0.212,0.006-0.442,0.006-0.702-0.009
			c-0.943-0.05-2.072-0.753-2.525-1.062c0.107-0.314,0.216-0.65,0.316-1.01c0.847,0.18,3.16,0.17,3.812,0.161
			C16.652,22.203,18.965,22.213,19.812,22.033z M11.309,5.502c0.342-0.196,1.626-0.956,1.791-1.287
			c0.148-0.297,1.325-1.396,1.104-2.306c0.71-0.252,1.275-0.229,1.337-0.227c0.075,0.108,0.259,0.131,0.402,0.081
			c0.145,0.05,0.327,0.027,0.402-0.081c0.065-0.003,0.705-0.028,1.488,0.269c-0.176,0.901,0.969,1.973,1.115,2.264
			c0.156,0.314,1.334,1.018,1.732,1.252c0.064,0.238,0.256,0.497,0.17,0.752c-0.516,1.506-9.087,2.06-9.703,0
			C11.075,5.971,11.25,5.729,11.309,5.502z M-1.345,21.855c0.371-0.34,0.703-0.645,0.977-0.909
			c2.104-2.044,11.937-9.587,12.137-9.732c0.144,0.027,0.277,0.085,0.401,0.171C9.764,13.733-0.091,23.348-1.429,24.295
			c-1.528,1.084-3.756,2.801-4.329,3.373c-0.383,0.386-1.215,1.301-1.728,1.871C-7.247,26.589-3.433,23.766-1.345,21.855z
			 M-7.245,31.295c-0.156-0.385-0.23-0.78-0.255-1.179c0.56-0.653,1.752-2.017,2.186-2.257c0.573-0.318,3.501-2.735,4.265-3.31
			c0.765-0.573,4.137-4.011,4.52-4.073c0.382-0.063,0.955,1.463,0.637,2.163c-0.319,0.7-1.592,1.972-2.037,2.481
			s-3.945,3.246-4.582,3.82c-0.638,0.572-2.482,2.353-2.801,2.798c-0.194,0.275-0.558,0.809-0.809,1.184
			C-6.599,32.425-7.02,31.855-7.245,31.295z M10.576,21.939c-0.887,2.482-4.752,8.232-8.189,10.143
			c-0.727,0.404-1.402,0.727-2.03,0.981c0.302-0.394,0.379-0.434,0.569-0.624c0.254-0.252,2.862-3.246,3.055-3.627
			c0.188-0.378,2.531-2.54,2.904-3.334c-0.868,0.911-2.719,2.869-3.032,3.079c-0.382,0.255-2.735,2.929-3.246,3.565
			c-0.381,0.475-1.39,1.081-1.951,1.611c-1.085,0.279-1.999,0.29-2.757,0.023c-0.457-0.161-1.189-0.039-1.726-0.539
			c0.15-0.404,0.442-1.04,0.897-1.412c0.701-0.574,2.481-2.736,2.991-2.991s3.628-3.056,4.328-3.565s1.844-1.719,2.036-2.291
			c0.191-0.574,0.573-1.781,0.318-2.1s-0.573-0.382-0.127-1.145c0.445-0.766,2.927-3.438,3.183-3.502
			c0.253-0.064,0.253,0.318,0.381,0.955c0.128,0.638-0.446,1.528-0.701,2.164c-0.253,0.636-1.463,2.862-1.845,3.309
			c-0.381,0.445-1.592,2.229-2.29,2.929c-0.699,0.7-2.736,2.546-3.119,3.053c-0.381,0.51,0,0.193,0.255,0.129s0.318-0.19,1.02-0.829
			c0.699-0.636,1.655-1.781,2.162-2.291c0.51-0.507,2.165-2.607,2.483-3.053c0.317-0.445,1.782-2.863,2.035-3.691
			c0.255-0.829,0.638-1.467,0.51-1.973c-0.128-0.51-0.255-1.083,0.128-1.4c0.381-0.319,2.162-2.419,2.863-2.992
			c0.309-0.253,0.577-0.553,0.784-0.812c0.565,0.934,0.212,1.911,0.149,2.532c-0.03,0.298-0.057,0.633-0.068,0.925
			C12.333,16.713,11.382,19.684,10.576,21.939z M18.113,26.776c-0.395,0.354-1.227,0.246-1.805,0.111h-0.616
			c-0.579,0.135-1.41,0.243-1.806-0.111c-0.455-0.407-2.131-2.672-2.332-2.971c0.104-0.212,0.099-0.135,0.104-0.147
			c0,0,2.228,2.418,4.341,1.595c2.114,0.823,4.342-1.595,4.342-1.595c0.006,0.013,0-0.064,0.104,0.147
			C20.244,24.104,18.568,26.369,18.113,26.776z M35.906,34.076c-0.805,0.145-1.904-0.046-3.012-0.342
			c-0.535-0.506-1.215-1.181-1.611-1.676c-0.506-0.637-2.861-3.311-3.246-3.562c-0.312-0.211-2.16-2.168-3.029-3.08
			c0.369,0.792,2.717,2.957,2.904,3.332c0.189,0.384,2.801,3.375,3.055,3.63c0.193,0.193,0.154,0.211,0.443,0.589
			c-0.605-0.25-1.252-0.564-1.949-0.951c-3.434-1.906-7.137-7.381-8.021-9.862c-0.809-2.259-1.771-5.44-1.986-6.989
			c-0.012-0.292-0.037-0.627-0.068-0.925c-0.061-0.609-0.402-1.569,0.127-2.488c0.193,0.231,0.432,0.487,0.697,0.706
			c0.701,0.573,2.484,2.673,2.865,2.993c0.381,0.317,0.256,0.891,0.127,1.399c-0.127,0.51,0.254,1.146,0.51,1.973
			c0.254,0.826,1.719,3.246,2.035,3.691s1.973,2.546,2.482,3.056c0.51,0.509,1.465,1.655,2.164,2.29
			c0.701,0.637,0.762,0.763,1.018,0.827c0.254,0.064,0.639,0.384,0.254-0.126c-0.381-0.512-2.416-2.355-3.117-3.056
			c-0.699-0.7-1.91-2.481-2.291-2.927s-1.59-2.674-1.846-3.311c-0.254-0.636-0.826-1.526-0.699-2.164
			c0.129-0.635,0.129-1.018,0.383-0.955c0.252,0.064,2.736,2.738,3.182,3.502s0.127,0.827-0.129,1.145
			c-0.254,0.318,0.129,1.529,0.32,2.102c0.189,0.572,1.338,1.782,2.035,2.289c0.701,0.51,3.82,3.311,4.328,3.565
			c0.51,0.255,2.291,2.417,2.99,2.991c0.508,0.413,0.809,1.152,0.941,1.535C37.246,33.749,36.375,33.992,35.906,34.076z
			 M38.084,32.965c-0.25-0.37-0.662-0.985-0.879-1.287c-0.318-0.445-2.162-2.227-2.801-2.801c-0.637-0.571-4.137-3.308-4.582-3.817
			s-1.721-1.782-2.037-2.481c-0.318-0.7,0.256-2.229,0.637-2.164c0.383,0.063,3.756,3.5,4.52,4.072
			c0.766,0.573,3.691,2.992,4.266,3.311c0.467,0.26,1.797,1.803,2.285,2.378c-0.029,0.381-0.1,0.756-0.246,1.122
			C39.012,31.871,38.576,32.457,38.084,32.965z"/>
		<path fill="#FFFFFF" d="M6.907,25.44c-0.003,0.011-0.018,0.028-0.024,0.038c0.19-0.201,0.338-0.352,0.406-0.422
			C7.669,24.679,7.224,24.679,6.907,25.44z"/>
		<path fill="#FFFFFF" d="M24.602,24.995c0.07,0.07,0.215,0.222,0.406,0.422c-0.004-0.012-0.018-0.029-0.023-0.038
			C24.666,24.613,24.221,24.613,24.602,24.995z"/>
	</g>
</g>
</svg>
