<?xml version="1.0" encoding="utf-8"?>
<!-- Generator: Adobe Illustrator 15.0.2, SVG Export Plug-In . SVG Version: 6.00 Build 0)  -->
<!DOCTYPE svg PUBLIC "-//W3C//DTD SVG 1.1//EN" "http://www.w3.org/Graphics/SVG/1.1/DTD/svg11.dtd">
<svg version="1.1" id="Layer_1" xmlns="http://www.w3.org/2000/svg" xmlns:xlink="http://www.w3.org/1999/xlink" x="0px" y="0px"
	 width="50px" height="50px" viewBox="0 0 32 32" enable-background="new 0 0 32 32" xml:space="preserve">
<path fill="#FFFFFF" d="M29.021,28.266c0,0-0.078-0.63-0.394-0.748c-0.315-0.117-1.022-0.274-1.022-0.274s0.158-0.629,0.119-1.415
	s-0.275-2.084-0.236-2.28s-0.274-1.651-0.668-2.556c-0.395-0.905-1.771-2.241-1.771-2.241s-0.942-3.066-1.809-4.443
	c-0.864-1.376-2.634-2.398-3.499-2.673c-0.864-0.275-3.381-0.511-4.403-0.511s-4.01,0.983-4.521,1.455
	c-0.511,0.472-2.477-1.691-2.713-1.887C7.87,10.494,5.251,7.424,4.411,6.248C3.821,5.422,2.56,3.773,2.72,1.53
	c0.118-1.651-0.157-1.69-0.314-1.376c-0.157,0.314-0.237,2.197-0.237,2.83c0,1.416,1.337,3.853,1.769,4.521
	c0.433,0.668,1.887,2.438,2.87,3.656c0.377,0.467,2.516,2.556,2.398,2.949s-1.573,1.966-1.966,2.359
	c-0.393,0.393-1.219,0.943-1.612,1.102s-1.101,0.55-1.297,1.298c-0.197,0.747-0.629,1.493-0.59,1.61
	c0.039,0.119-0.236,0.944-0.433,1.181c-0.196,0.235-0.943,1.258-0.668,1.455C2.917,23.311,3.192,22.8,3.349,22.8
	c0,0,0.157,0.433,0.236,0.707c0.079,0.275,0.079,0.591,0.393,0.474c0.314-0.119,0.354-0.904,0.354-0.904S4.764,23.782,5.04,23.9
	c0.275,0.117,0.393-0.395,0.393-0.395s-0.649-1.316,2.673-0.55c0.364,0.084,2.005,0.433,2.163,0.472
	c0.158,0.039,0.983,1.928,1.179,2.006c0.197,0.078,0.826,0.629,0.865,0.903s-0.079,0.942-0.04,1.22
	c0.04,0.274,0.04,0.864-0.039,1.454c-0.079,0.591-0.079,1.101,0.433,1.415c0,0,1.415,0.708,2.201,0.551
	c0.787-0.156,1.219-0.668,1.729-0.707c0.512-0.039,2.28-0.119,3.027-0.314c0.747-0.196,1.611-0.434,2.162-0.786
	c0.55-0.354,1.494-0.313,1.926-0.433c0.434-0.118,0.826-0.314,1.416-0.786s1.219-1.142,1.219-1.142s0.118,1.219-0.078,1.533
	s0.039,0.236,0.313,0.197c0.274-0.04,0.433,0.078,0.433,0.354c0,0.276,0.118,0.629,0.395,0.395c0.275-0.236,0.195-0.59,0.195-0.59
	s0.826,0.117,0.904,0.313c0.079,0.196,0.354,0.354,0.395,0.196c0.039-0.157,0.275,0.079,0.354-0.275
	C29.337,28.579,29.021,28.266,29.021,28.266z M14.185,24.919c0,0.366-0.813,0.812-0.813,0.812c-0.528,0-0.163-0.894,0.082-1.26
	c0.244-0.365,0.528-0.689,0.854-0.65C14.632,23.861,14.185,24.553,14.185,24.919z M14.75,21.896c0,0-0.668-0.59-0.983-1.062
	c-0.314-0.471-0.079-1.141,0.197-1.809c0.275-0.668-0.275-1.258-0.236-2.318c0.039-1.062,0.865-1.219,0.982-0.59
	c0.118,0.629,1.69,2.438,1.849,2.674c0.156,0.234,0.375,1.23,0.235,1.258C15.576,20.283,14.868,21.936,14.75,21.896z M18.628,27.128
	c-0.162,0.404-1.174,0.688-1.578,0.485c-0.403-0.203-1.174-0.323-1.052-1.012c0,0,0.932-1.295,1.781-1.093
	S18.789,26.725,18.628,27.128z M25.759,24.137c-0.551,0.746-1.298,1.297-2.161,1.219c-0.865-0.078-1.533-0.354-1.652-0.629
	c-0.117-0.274,0.039-0.235,0.473-0.629s0.473-0.787,0.434-1.021c-0.039-0.236-0.865,0.354-0.865,0.354s-0.473,0.314-0.786,0.275
	c-0.313-0.04-0.865-0.865-0.196-2.084c0.084-0.154,0.393-0.747,1.219-0.865c0.825-0.117,1.81-0.472,2.162-0.59
	c0.354-0.117,1.141-0.354,1.299-0.393c0.155-0.039,0.51,1.533,0.51,2.201C26.191,22.643,26.311,23.391,25.759,24.137z"/>
</svg>
